<?xml version="1.0" encoding="utf-8"?>
<!-- Generator: Adobe Illustrator 25.2.3, SVG Export Plug-In . SVG Version: 6.00 Build 0)  -->
<svg version="1.1" id="Layer_1" xmlns="http://www.w3.org/2000/svg" xmlns:xlink="http://www.w3.org/1999/xlink" x="0px" y="0px"
	 viewBox="0 0 95.3 65.8" style="enable-background:new 0 0 95.3 65.8;" xml:space="preserve">
<style type="text/css">
	.st0{fill:#009999;}
</style>
<g>
	<path class="st0" d="M0,1.8C0,0.8,0.7,0,1.7,0c1,0,1.7,0.8,1.7,1.8c0,1-0.7,1.8-1.7,1.8C0.7,3.6,0,2.8,0,1.8z"/>
	<path class="st0" d="M15.3,1.8c0-1,0.7-1.8,1.7-1.8c1,0,1.7,0.8,1.7,1.8c0,1-0.7,1.8-1.7,1.8C16.1,3.6,15.3,2.8,15.3,1.8z"/>
	<path class="st0" d="M30.6,1.8c0-1,0.7-1.8,1.7-1.8c1,0,1.7,0.8,1.7,1.8c0,1-0.7,1.8-1.7,1.8C31.4,3.6,30.6,2.8,30.6,1.8z"/>
	<path class="st0" d="M46,1.8c0-1,0.7-1.8,1.7-1.8c1,0,1.7,0.8,1.7,1.8c0,1-0.7,1.8-1.7,1.8C46.7,3.6,46,2.8,46,1.8z"/>
	<path class="st0" d="M61.3,1.8C61.3,0.8,62,0,63,0c1,0,1.7,0.8,1.7,1.8c0,1-0.7,1.8-1.7,1.8C62,3.6,61.3,2.8,61.3,1.8z"/>
	<path class="st0" d="M76.6,1.8c0-1,0.7-1.8,1.7-1.8c1,0,1.7,0.8,1.7,1.8c0,1-0.7,1.8-1.7,1.8C77.3,3.6,76.6,2.8,76.6,1.8z"/>
	<path class="st0" d="M91.9,1.8c0-1,0.7-1.8,1.7-1.8c1,0,1.7,0.8,1.7,1.8c0,1-0.7,1.8-1.7,1.8C92.7,3.6,91.9,2.8,91.9,1.8z"/>
	<path class="st0" d="M0,22.5c0-1,0.7-1.8,1.7-1.8c1,0,1.7,0.8,1.7,1.8c0,1-0.7,1.8-1.7,1.8C0.7,24.3,0,23.6,0,22.5z"/>
	<path class="st0" d="M15.3,22.5c0-1,0.7-1.8,1.7-1.8c1,0,1.7,0.8,1.7,1.8c0,1-0.7,1.8-1.7,1.8C16.1,24.3,15.3,23.6,15.3,22.5z"/>
	<path class="st0" d="M30.6,22.5c0-1,0.7-1.8,1.7-1.8c1,0,1.7,0.8,1.7,1.8c0,1-0.7,1.8-1.7,1.8C31.4,24.3,30.6,23.6,30.6,22.5z"/>
	<path class="st0" d="M46,22.5c0-1,0.7-1.8,1.7-1.8c1,0,1.7,0.8,1.7,1.8c0,1-0.7,1.8-1.7,1.8C46.7,24.3,46,23.6,46,22.5z"/>
	<path class="st0" d="M61.3,22.5c0-1,0.7-1.8,1.7-1.8c1,0,1.7,0.8,1.7,1.8c0,1-0.7,1.8-1.7,1.8C62,24.3,61.3,23.6,61.3,22.5z"/>
	<path class="st0" d="M76.6,22.5c0-1,0.7-1.8,1.7-1.8c1,0,1.7,0.8,1.7,1.8c0,1-0.7,1.8-1.7,1.8C77.3,24.3,76.6,23.6,76.6,22.5z"/>
	<path class="st0" d="M91.9,22.5c0-1,0.7-1.8,1.7-1.8c1,0,1.7,0.8,1.7,1.8c0,1-0.7,1.8-1.7,1.8C92.7,24.3,91.9,23.6,91.9,22.5z"/>
	<path class="st0" d="M0,43.3c0-1,0.7-1.8,1.7-1.8c1,0,1.7,0.8,1.7,1.8c0,1-0.7,1.8-1.7,1.8C0.7,45.1,0,44.3,0,43.3z"/>
	<path class="st0" d="M15.3,43.3c0-1,0.7-1.8,1.7-1.8c1,0,1.7,0.8,1.7,1.8c0,1-0.7,1.8-1.7,1.8C16.1,45.1,15.3,44.3,15.3,43.3z"/>
	<path class="st0" d="M30.6,43.3c0-1,0.7-1.8,1.7-1.8c1,0,1.7,0.8,1.7,1.8c0,1-0.7,1.8-1.7,1.8C31.4,45.1,30.6,44.3,30.6,43.3z"/>
	<path class="st0" d="M46,43.3c0-1,0.7-1.8,1.7-1.8c1,0,1.7,0.8,1.7,1.8c0,1-0.7,1.8-1.7,1.8C46.7,45.1,46,44.3,46,43.3z"/>
	<path class="st0" d="M61.3,43.3c0-1,0.7-1.8,1.7-1.8c1,0,1.7,0.8,1.7,1.8c0,1-0.7,1.8-1.7,1.8C62,45.1,61.3,44.3,61.3,43.3z"/>
	<path class="st0" d="M76.6,43.3c0-1,0.7-1.8,1.7-1.8c1,0,1.7,0.8,1.7,1.8c0,1-0.7,1.8-1.7,1.8C77.3,45.1,76.6,44.3,76.6,43.3z"/>
	<path class="st0" d="M91.9,43.3c0-1,0.7-1.8,1.7-1.8c1,0,1.7,0.8,1.7,1.8c0,1-0.7,1.8-1.7,1.8C92.7,45.1,91.9,44.3,91.9,43.3z"/>
	<path class="st0" d="M0,64c0-1,0.7-1.8,1.7-1.8c1,0,1.7,0.8,1.7,1.8c0,1-0.7,1.8-1.7,1.8C0.7,65.8,0,65,0,64z"/>
	<path class="st0" d="M15.3,64c0-1,0.7-1.8,1.7-1.8c1,0,1.7,0.8,1.7,1.8c0,1-0.7,1.8-1.7,1.8C16.1,65.8,15.3,65,15.3,64z"/>
	<path class="st0" d="M30.6,64c0-1,0.7-1.8,1.7-1.8c1,0,1.7,0.8,1.7,1.8c0,1-0.7,1.8-1.7,1.8C31.4,65.8,30.6,65,30.6,64z"/>
	<path class="st0" d="M46,64c0-1,0.7-1.8,1.7-1.8c1,0,1.7,0.8,1.7,1.8c0,1-0.7,1.8-1.7,1.8C46.7,65.8,46,65,46,64z"/>
	<path class="st0" d="M61.3,64c0-1,0.7-1.8,1.7-1.8c1,0,1.7,0.8,1.7,1.8c0,1-0.7,1.8-1.7,1.8C62,65.8,61.3,65,61.3,64z"/>
	<path class="st0" d="M76.6,64c0-1,0.7-1.8,1.7-1.8c1,0,1.7,0.8,1.7,1.8c0,1-0.7,1.8-1.7,1.8C77.3,65.8,76.6,65,76.6,64z"/>
	<path class="st0" d="M91.9,64c0-1,0.7-1.8,1.7-1.8c1,0,1.7,0.8,1.7,1.8c0,1-0.7,1.8-1.7,1.8C92.7,65.8,91.9,65,91.9,64z"/>
</g>
</svg>
