<?xml version="1.0" encoding="utf-8"?>
<!-- Generator: Adobe Illustrator 24.1.0, SVG Export Plug-In . SVG Version: 6.00 Build 0)  -->
<svg version="1.1" id="Layer_1" xmlns="http://www.w3.org/2000/svg" xmlns:xlink="http://www.w3.org/1999/xlink" x="0px" y="0px"
	 viewBox="0 0 450 106.3" style="enable-background:new 0 0 450 106.3;" xml:space="preserve">
<style type="text/css">
	.st0{fill:#2A3845;}
	.st1{fill:#F24E79;}
</style>
<g>
	<g>
		<path class="st0" d="M190.9,13.7v24.4H218v7.1h-27.2v24.9H221v7.5h-39.4V6.2H221v7.5H190.9z"/>
		<path class="st0" d="M277.9,27.3c4,4.2,6,10.2,6,18v32.3h-9.2V46.1c0-5.5-1.4-9.8-4.3-12.8c-2.8-3-6.7-4.5-11.6-4.5
			c-5.1,0-9.1,1.6-12.2,4.9c-3,3.3-4.6,8.1-4.6,14.3v29.5h-9.2V22h9.2v13.2c1.4-4.5,3.9-8,7.5-10.4s7.8-3.6,12.5-3.6
			C268.7,21.1,273.9,23.2,277.9,27.3z"/>
		<path class="st0" d="M324.6,69.5v8.1h-6.9c-5.7,0-9.9-1.4-12.7-4.1c-2.8-2.7-4.2-7.2-4.2-13.6V30h-8.3v-8h8.3V8.1h9.3V22h14.4v8
			h-14.4v30.2c0,3.6,0.7,6,2,7.3s3.6,2,6.8,2H324.6z"/>
		<path class="st0" d="M336,1.6c1.1-1,2.7-1.6,4.6-1.6s3.4,0.5,4.6,1.6c1.1,1,1.7,2.4,1.7,4.1s-0.6,3.1-1.7,4.1s-2.7,1.6-4.6,1.6
			s-3.4-0.5-4.6-1.6c-1.1-1-1.7-2.4-1.7-4.1S334.8,2.6,336,1.6z M345.1,22v55.6h-9.2V22H345.1z"/>
		<path class="st0" d="M377.1,24.3c3.5-2.1,7.7-3.2,12.6-3.2v10h-2.8c-5.2,0-9.5,1.3-12.8,4s-5,7.1-5,13.2v29.3h-9.2V22h9.2v11.2
			C371,29.4,373.6,26.4,377.1,24.3z"/>
		<path class="st0" d="M449.6,51.8h-44.5c0.2,6.4,2,11.1,5.4,14.3s7.6,4.8,12.5,4.8c4.5,0,8.2-1.1,11.2-3.4s4.8-5.3,5.5-9.1h9.8
			c-0.7,3.8-2.2,7.3-4.5,10.3s-5.4,5.4-9.1,7.1s-7.9,2.5-12.6,2.5c-5.3,0-10.1-1.1-14.2-3.4s-7.3-5.6-9.7-9.9
			c-2.3-4.3-3.5-9.3-3.5-15.1s1.2-10.9,3.5-15.2s5.6-7.6,9.7-9.9s8.8-3.4,14.2-3.4c5.4,0,10.1,1.1,14.1,3.4s7.1,5.4,9.2,9.2
			s3.2,8.1,3.2,12.8C450,48.7,449.9,50.4,449.6,51.8z M438.6,37c-1.6-2.8-3.7-4.8-6.4-6.2c-2.7-1.3-5.6-2-8.8-2
			c-5.1,0-9.3,1.6-12.8,4.7c-3.4,3.1-5.3,7.8-5.6,13.8h35.6C440.9,43.2,440.2,39.8,438.6,37z"/>
	</g>
	<path class="st0" d="M43.9,6H0v100.3h31.4V74.5h12.5c8.1,0,15-1.5,20.8-4.5c5.7-3,10-7.1,13-12.3c2.9-5.1,4.4-10.9,4.4-17.2
		c0-10.5-3.3-18.8-9.8-25.1C65.6,9.2,56.2,6,43.9,6z M40.4,49.7h-8.9V31.3h8.9c6.5,0,9.8,3.1,9.8,9.2C50.1,46.6,46.9,49.7,40.4,49.7
		z"/>
	<g>
		<rect x="180.7" y="97.5" class="st1" width="269.3" height="8.8"/>
	</g>
	<g>
		<path class="st0" d="M116.1,6L94.5,66.2l-4.2-11.3c-0.9,2.8-2.1,5.4-3.5,8c-3.5,6.1-8.5,11.2-14.8,15l8.8,28.4h26.9l15.4-50v50
			h31.3V6H116.1z"/>
		<path class="st0" d="M43.9,85.1h-1.8v21.2h23.3v-25C59.1,83.8,51.9,85.1,43.9,85.1z"/>
	</g>
</g>
</svg>
